<svg width="112" height="56" viewBox="0 0 112 56" fill="none" xmlns="http://www.w3.org/2000/svg">
<path d="M29.5411 30.0172C29.0882 31.8759 28.1038 33.556 26.7123 34.8449C25.3208 36.1338 23.5848 36.9734 21.7243 37.2575C19.8637 37.5416 17.9621 37.2574 16.2603 36.4409C14.5585 35.6244 13.133 34.3123 12.1642 32.6707C11.1954 31.0291 10.727 29.1318 10.8182 27.2191C10.9094 25.3063 11.5561 23.4641 12.6764 21.9257C13.7968 20.3873 15.3404 19.2218 17.1119 18.5768C18.8834 17.9318 20.8031 17.8364 22.6279 18.3025C25.0689 18.9261 27.1675 20.5094 28.4634 22.7054C29.7593 24.9014 30.1469 27.5308 29.5411 30.0172Z" fill="#F7931A"/>
<path d="M24.5251 26.2976C24.7123 25.0094 23.7497 24.3169 22.4455 23.8573L22.8733 22.1125L21.8187 21.8464L21.4027 23.5458C21.1294 23.4763 20.8472 23.4097 20.5679 23.3462L20.9838 21.6287L19.9411 21.3625L19.5133 23.1074L18.8478 22.9562L17.4069 22.5903L17.1306 23.7242C17.1306 23.7242 17.906 23.9057 17.8882 23.9178C18.0303 23.9353 18.1603 24.0079 18.2511 24.1206C18.3419 24.2333 18.3864 24.3773 18.3754 24.5226L17.8882 26.5093C17.9249 26.5177 17.9608 26.5298 17.9951 26.5456L17.8852 26.5153L17.2049 29.3004C17.1897 29.3488 17.1653 29.3938 17.133 29.4326C17.1007 29.4715 17.0613 29.5035 17.0168 29.5268C16.9724 29.5501 16.9239 29.5642 16.8741 29.5685C16.8243 29.5727 16.7742 29.5669 16.7266 29.5513C16.7266 29.5665 15.969 29.3608 15.969 29.3608L15.4491 30.5704L16.8068 30.9151L17.5495 31.1087L17.1187 32.8746L18.1615 33.1377L18.5893 31.3929C18.8706 31.4715 19.1468 31.5441 19.4182 31.6106L18.9963 33.3615L20.0391 33.6246L20.4699 31.8646C22.2524 32.2064 23.5863 32.0703 24.1508 30.4313C24.6053 29.1129 24.127 28.3539 23.1912 27.8579C23.8745 27.6977 24.3855 27.2411 24.5251 26.2976ZM22.1484 29.6995C21.8276 31.0179 19.6469 30.3043 18.9399 30.1259L19.5133 27.7884C20.2114 27.9789 22.4782 28.3236 22.1395 29.6995H22.1484ZM22.4722 26.2795C22.1752 27.489 20.3629 26.8691 19.7747 26.7209L20.2946 24.6042C20.8739 24.7493 22.7693 25.0275 22.4633 26.2795H22.4722Z" fill="white"/>
<path d="M38.6861 23.8543C39.374 23.8383 40.0565 23.981 40.6825 24.2716C41.2258 24.5353 41.7032 24.921 42.0788 25.3995C42.4636 25.8945 42.7465 26.4632 42.9107 27.0718C43.0907 27.7427 43.1797 28.4356 43.1751 29.1311C43.1818 30.2273 42.9737 31.3139 42.5631 32.3274C42.1666 33.2965 41.5941 34.1808 40.8756 34.934C40.1608 35.6803 39.3102 36.278 38.3712 36.6939C37.3866 37.1352 36.3216 37.3599 35.2458 37.3531H34.4853C34.0717 37.3394 33.6592 37.3031 33.2494 37.2443C32.7493 37.1707 32.2534 37.0697 31.764 36.9419C31.2515 36.8166 30.7535 36.6362 30.2785 36.4036L34.4526 18.6048L38.1781 18L36.6927 24.317C37.002 24.1745 37.3231 24.0602 37.6522 23.9753C37.9916 23.8912 38.3398 23.8495 38.6891 23.8513L38.6861 23.8543ZM35.5578 34.3292C36.113 34.3308 36.6593 34.1871 37.1442 33.9119C37.6431 33.6407 38.082 33.2681 38.4336 32.8172C38.7992 32.34 39.0871 31.806 39.2862 31.2357C39.4956 30.6462 39.6021 30.024 39.6011 29.3972C39.6345 28.7613 39.5012 28.1278 39.2149 27.5617C38.9594 27.1232 38.4841 26.8994 37.7948 26.8994C37.4944 26.9099 37.1958 26.9514 36.9036 27.0234C36.5406 27.1061 36.2048 27.2832 35.9291 27.5375L34.3546 34.2385L34.6071 34.2869C34.6822 34.3055 34.7587 34.3177 34.8359 34.3232C34.9345 34.3339 35.0337 34.339 35.1329 34.3383L35.5578 34.3292Z" fill="#4D4D4D"/>
<path d="M47.0279 37.0084H43.4629L46.4753 24.1265H50.0612L47.0279 37.0084ZM48.7599 22.5571C48.2739 22.5617 47.8 22.4033 47.4112 22.1065C47.2081 21.943 47.0476 21.7311 46.944 21.4896C46.8404 21.2481 46.7967 20.9843 46.817 20.7215C46.8152 20.3886 46.8852 20.0593 47.022 19.7569C47.1529 19.4623 47.3373 19.1955 47.5656 18.9707C47.7936 18.7498 48.0581 18.5717 48.347 18.4445C48.6472 18.3132 48.9709 18.2463 49.2977 18.248C49.78 18.2464 50.2496 18.4057 50.6346 18.7015C50.8373 18.8654 50.9974 19.0773 51.101 19.3187C51.2046 19.5602 51.2484 19.8238 51.2287 20.0865C51.2315 20.4202 51.1625 20.7505 51.0267 21.0542C50.8958 21.3471 50.7124 21.6127 50.486 21.8374C50.2586 22.0589 49.9939 22.2371 49.7047 22.3635C49.4063 22.4939 49.0846 22.5598 48.7599 22.5571Z" fill="#4D4D4D"/>
<path d="M53.1815 20.9181L56.9099 20.3314L55.983 24.1264H59.9759L59.2569 27.1141H55.2968L54.2391 31.6076C54.1475 31.9516 54.0907 32.3042 54.0698 32.66C54.0482 32.9479 54.0898 33.2371 54.1916 33.5067C54.291 33.7482 54.4753 33.9434 54.7085 34.054C55.0446 34.2053 55.4111 34.2736 55.778 34.2536C56.1541 34.2534 56.5292 34.2159 56.8981 34.1417C57.2692 34.068 57.6346 33.9669 57.9913 33.8393L58.2587 36.6334C57.7468 36.8208 57.2239 36.9753 56.6931 37.0961C56.037 37.2378 55.3673 37.3038 54.6966 37.2926C53.5885 37.2926 52.7329 37.1233 52.1209 36.7907C51.5486 36.4949 51.0911 36.0112 50.8226 35.4178C50.558 34.7886 50.4421 34.1051 50.4839 33.422C50.5237 32.6217 50.6371 31.827 50.8226 31.0482L53.1815 20.909V20.9181Z" fill="#4D4D4D"/>
<path d="M59.8447 31.8647C59.8371 30.7958 60.0162 29.734 60.3735 28.7289C60.7087 27.7787 61.2234 26.9044 61.8886 26.1555C62.5597 25.4139 63.3752 24.8228 64.2832 24.4198C65.274 23.9842 66.3442 23.7667 67.4234 23.7817C68.0748 23.774 68.725 23.844 69.3604 23.9904C69.8945 24.1191 70.4142 24.3035 70.9112 24.5407L69.6723 27.3742C69.3515 27.2411 69.0187 27.1262 68.6741 27.0204C68.2633 26.9037 67.8378 26.8497 67.4115 26.8601C66.8797 26.8405 66.3505 26.9435 65.8634 27.1614C65.3762 27.3792 64.9437 27.7062 64.5981 28.118C63.9029 28.9496 63.5494 30.0685 63.5494 31.4746C63.5173 32.1877 63.703 32.8934 64.0811 33.4946C64.4337 34.0087 65.0833 34.2657 66.03 34.2657C66.4835 34.2671 66.9357 34.2184 67.3788 34.1205C67.7739 34.0324 68.1607 33.9089 68.5345 33.7516L68.7989 36.6667C68.314 36.8573 67.8179 37.0169 67.3135 37.1445C66.6741 37.2912 66.0199 37.3602 65.3646 37.3501C64.4948 37.3759 63.6287 37.2269 62.8156 36.9116C62.169 36.6464 61.5871 36.2408 61.1103 35.7232C60.6606 35.2224 60.3293 34.6235 60.1418 33.9724C59.94 33.2888 59.8398 32.5784 59.8447 31.8647Z" fill="#4D4D4D"/>
<path d="M75.6531 37.3531C74.8963 37.3692 74.1436 37.2357 73.4368 36.96C72.8425 36.7215 72.3113 36.3445 71.886 35.8593C71.4684 35.3696 71.153 34.7986 70.9591 34.181C70.749 33.4879 70.6487 32.7652 70.662 32.0401C70.6642 31.0414 70.8217 30.0494 71.1284 29.1008C71.4269 28.1461 71.8918 27.2539 72.501 26.467C73.1128 25.6801 73.8735 25.0261 74.738 24.5437C75.6685 24.0343 76.712 23.7771 77.7683 23.7968C78.5201 23.7826 79.2676 23.9161 79.9697 24.1899C80.5662 24.4238 81.1011 24.7955 81.5324 25.2755C81.9485 25.7658 82.2628 26.3367 82.4564 26.9538C82.6664 27.6479 82.7667 28.3716 82.7535 29.0978C82.7505 30.0954 82.5972 31.0867 82.2989 32.037C82.0063 32.9922 81.5496 33.887 80.9501 34.6799C80.3483 35.472 79.5903 36.1271 78.7249 36.6032C77.7803 37.115 76.723 37.3731 75.6531 37.3531ZM77.4356 26.8722C76.9327 26.8649 76.4416 27.0276 76.0393 27.3348C75.6313 27.6562 75.2892 28.0559 75.0321 28.5111C74.7485 28.995 74.5362 29.5187 74.4023 30.0654C74.2706 30.5893 74.2018 31.1274 74.1973 31.6681C74.1653 32.3278 74.2971 32.9851 74.5806 33.5792C74.839 34.0358 75.3025 34.2657 75.9769 34.2657C76.4805 34.2746 76.9724 34.1106 77.3732 33.8C77.7818 33.4785 78.1249 33.0789 78.3833 32.6237C78.6615 32.1388 78.8686 31.6152 78.9983 31.0694C79.1278 30.5442 79.1957 30.0052 79.2003 29.4637C79.2333 28.8039 79.1015 28.1464 78.817 27.5525C78.5586 27.099 78.0921 26.8691 77.4207 26.8691L77.4356 26.8722Z" fill="#4D4D4D"/>
<path d="M86.6518 37.0084H83.0868L86.0933 24.1265H89.6821L86.6518 37.0084ZM88.3839 22.5571C87.8987 22.5622 87.4255 22.4038 87.0381 22.1065C86.835 21.9431 86.6745 21.7312 86.5709 21.4897C86.4673 21.2481 86.4236 20.9843 86.4439 20.7216C86.4421 20.3886 86.5121 20.0594 86.6489 19.7569C86.7752 19.4635 86.9546 19.1968 87.1777 18.9707C87.4073 18.7505 87.6726 18.5725 87.962 18.4446C88.2613 18.3136 88.5839 18.2467 88.9097 18.248C89.3961 18.2438 89.8703 18.4033 90.2585 18.7016C90.4612 18.8654 90.6213 19.0774 90.7249 19.3188C90.8285 19.5602 90.8724 19.8239 90.8527 20.0866C90.852 20.4205 90.7811 20.7505 90.6447 21.0542C90.5159 21.3476 90.3334 21.6134 90.107 21.8374C89.8795 22.0589 89.6149 22.2372 89.3256 22.3636C89.0282 22.4935 88.7075 22.5594 88.3839 22.5571Z" fill="#4D4D4D"/>
<path d="M92.2505 24.7131C92.5179 24.6344 92.8209 24.5377 93.1418 24.4318C93.4626 24.326 93.837 24.2292 94.2499 24.1294C94.7024 24.0319 95.1595 23.9582 95.6195 23.9087C96.1909 23.8473 96.7651 23.8181 97.3396 23.821C99.2172 23.821 100.513 24.3764 101.226 25.4872C101.939 26.598 102.063 28.117 101.6 30.0442L99.9629 36.9993H96.386L97.9754 30.1894C98.0705 29.766 98.1477 29.3548 98.2041 28.9526C98.2626 28.6039 98.2575 28.2472 98.1893 27.9003C98.1318 27.6089 97.975 27.3476 97.7466 27.1624C97.4298 26.9524 97.0542 26.8536 96.6771 26.8812C96.2 26.8829 95.7242 26.9336 95.257 27.0324L92.9219 37.0114H89.3361L92.2505 24.7131Z" fill="#4D4D4D"/>
</svg>
